Christopher Papakaliatis...Dimitris
Marina Kalogirou...Christina
Maro Kontou...Elenitsa Kokovikou
Giorgos Konstantinou... Antonakis Kokovikos
Themis Bazaka... Dimitris' Mother
Maria Solomou... Maria
Vassilis Charalambopoulos...Vasilis
Fanis Mouratidis... Giorgos
Takis Spiridakis...Bartender
Tasos Iordanidis... Giannis
Akilas Karazisis... Producer
Dimitris Kastanias...Train Passenger
Iro Mitroutsikou
Alex Triantafullou... Train Passenger

╬æ╬╜ ╧â╬╡ ╬│╬╜╧Ä╧ü╬╣╬╢╬▒ ╧î╬╗╬▒ ╬╕╬▒ ╬«╧ä╬▒╬╜ ╬▒╬╗╬╗╬╣╧Ä╧é
- ╬æ╬╜ ╬╝╬╡ ╬¼╬╜╧ä╬╡╧ç╬▒ ╬╕╬▒ ╬«╧ä╬▒╬╜ ╬║╬▒╬╗╧ì╧ä╬╡╧ü╬▒

╬î╬╗╬┐╬╣ ╬┤╬╡╬╜ ╬¡╧ç╬┐╧à╬╝╬╡ ╬▒╬╜╬▒╧ü╧ë╧ä╬╖╬╕╬╡╬» ╧Ç╧ë╧é ╬╕╬▒ ╬«╧ä╬▒╬╜ ╬╖ ╬╢╧ë╬« ╬╝╬▒╧é ╬▒╬╜ ╧â╧à╬╜╬▒╬╜╧ä╬┐╧ì╧â╬▒╬╝╬╡ ╬¡╬╜╬▒╬╜ ╬╝╬╡╬│╬¼╬╗╬┐ ╬¡╧ü╧ë╧ä╬▒;
╬î╬╗╬┐╬╣ ╬┤╬╡╬╜ ╬¡╧ç╬┐╧à╬╝╬╡ ╧â╬║╬╡╧å╧ä╬╡╬» ╬▒╬╜ ╧â╧ä╬╖ ╬╢╧ë╬« ╬╝╬▒╧é ╬│╬»╬╜╬┐╬╜╧ä╬▒╬╣ ╧î╬╗╬▒ ╧ä╧à╧ç╬▒╬»╬▒;
╬æ╬╜ ╬╖ ╬║╬¼╬╕╬╡ ╧â╧ä╬╣╬│╬╝╬«, ╧ä╬┐ ╬║╬¼╬╕╬╡ ╬╗╬╡╧Ç╧ä╧î, ╬╖ ╬║╬¼╬╕╬╡ ╬╝╬╣╬║╧ü╬« ╬▒╧Ç╧î╧å╬▒╧â╬╖ ╬╝╧Ç╬┐╧ü╬┐╧ì╧â╬╡ ╬╜╬▒ ╬▒╬╗╬╗╬¼╬╛╬╡╬╣ ╧ä╬╖ ╬╢╧ë╬« ╬╝╬▒╧é;

╬ñ╬┐ ┬½╬æ╬╜ΓÇª┬╗ ╬╡╬»╬╜╬▒╬╣ ╬╝╬»╬▒ ╬╡╧ü╧ë╧ä╬╣╬║╬« ╬╣╧â╧ä╬┐╧ü╬»╬▒ ╬╝╬╡ ╧å╧î╬╜╧ä╬┐ ╧ä╬╖╬╜ ╬æ╬╕╬«╬╜╬▒ ╧ä╬┐╧à ╧â╬«╬╝╬╡╧ü╬▒ ╬║╬▒╬╣ ╬╝╬╡ ╬║╬╡╬╜╧ä╧ü╬╣╬║╬¼ ╬╕╬¡╬╝╬▒╧ä╬▒ ╧ä╬┐╬╜ ┬½╬¡╧ü╧ë╧ä╬▒┬╗ ╬║╬▒╬╣ ╧ä╬╖ ┬½╬╝╬┐╬╜╬▒╬╛╬╣╬¼┬╗ ╧Ç╬┐╧à ╧Ç╬▒╧ü╬▒╬╝╬¡╬╜╬┐╧à╬╜ ╧â╧ä╬╖╬╜ ╬╡╧Ç╬┐╧ç╬« ╬╝╬▒╧é ╬┤╧ì╬┐ ╬▒╧Ç╧î ╧ä╬▒ ╧â╬╖╬╝╬▒╬╜╧ä╬╣╬║╧î╧ä╬╡╧ü╬▒ ╬║╬╡╧å╬¼╬╗╬▒╬╣╬▒ ╧â╧ä╬╖ ╬╢╧ë╬« ╬║╬¼╬╕╬╡ ╬▒╬╜╬╕╧ü╧Ä╧Ç╬┐╧à.
╬ê╬╜╬▒ ╧Ç╬▒╧ü╬▒╬╝╧ì╬╕╬╣ ╬│╬╣╬▒ ╧ä╬╣╧é ╧â╧ç╬¡╧â╬╡╬╣╧é, ╬╝╬╡ ╬║╬╡╬╜╧ä╧ü╬╣╬║╬┐╧ì╧é ╬«╧ü╧ë╬╡╧é ╬┤╧ì╬┐ ╬╜╬¡╬┐╧à╧é ╬▒╬╜╬╕╧ü╧Ä╧Ç╬┐╧à╧é ╧ä╬╖╧é ╧â╬╖╬╝╬╡╧ü╬╣╬╜╬«╧é ╬╡╧Ç╬┐╧ç╬«╧é, ╧ä╬┐╬╜ ╬ö╬╖╬╝╬«╧ä╧ü╬╖ ╬║╬▒╬╣ ╧ä╬╖ ╬º╧ü╬╣╧â╧ä╬»╬╜╬▒, ╬║╬▒╬╣ ╬╝╬╡ ╬▒╧å╬╖╬│╬╖╧ä╬¡╧é ╧â╬╡ ╬▒╧à╧ä╧î ╧ä╬┐ ╧Ç╬▒╧ü╬▒╬╝╧ì╬╕╬╣ ╬┤╧ì╬┐ ╬▒╧Ç╧î ╧ä╬┐╧à╧é ╧Ç╬╣╬┐ ╬▒╬│╬▒╧Ç╬╖╬╝╬¡╬╜╬┐╧à╧é ╬«╧ü╧ë╬╡╧é ╬╝╬»╬▒╧é ╧Ç╬▒╬╗╬▒╬╣╧î╧ä╬╡╧ü╬╖╧é ╬╡╧Ç╬┐╧ç╬«╧é. ╬ñ╬┐╬╜ ╬æ╬╜╧ä╧ë╬╜╬¼╬║╬╖ ╬║╬▒╬╣ ╧ä╬╖╬╜ ╬ò╬╗╬╡╬╜╬»╧ä╧â╬▒ ╬Ü╬┐╬║╬┐╬▓╬»╬║╬┐╧à. ╬ƒ ╬æ╬╜╧ä╧ë╬╜╬¼╬║╬╖╧é ╬║╬▒╬╣ ╬╖ ╬ò╬╗╬╡╬╜╬»╧ä╧â╬▒, ╬┐╬╣ ╬«╧ü╧ë╬╡╧é ╧ä╬╖╧é ╧ä╬▒╬╣╬╜╬»╬▒╧é ┬½╬ù ╬┤╬╡ ╬│╧à╬╜╬« ╬╜╬▒ ╧å╬┐╬▓╬«╧ä╬▒╬╣ ╧ä╬┐╬╜ ╬¼╬╜╬┤╧ü╬▒┬╗ ╧ä╬┐╧à ╬ô╬╣╧Ä╧ü╬│╬┐╧à ╬ñ╬╢╬▒╬▓╬¡╬╗╬╗╬▒, ╬╡╬»╬╜╬▒╬╣ 45 ╧ç╧ü╧î╬╜╬╣╬▒ ╬╝╬╡╧ä╬¼ ╬▒╬║╧î╬╝╬▒ ╬╝╬▒╬╢╬», ╬▒╬║╧î╬╝╬▒ ╬╡╧ü╧ë╧ä╬╡╧à╬╝╬¡╬╜╬┐╬╣ ╬║╬▒╬╣ ╧Ç╬╣╬┐ ╬╡╧Ç╬»╬║╬▒╬╣╧ü╬┐╬╣ ╬▒╧Ç╧î ╧Ç╬┐╧ä╬¡. ╬ô╬»╬╜╬┐╬╜╧ä╬▒╬╣ ╬│╬╣╬▒ ╧ç╬¼╧ü╬╖ ╧ä╬╖╧é ╬╣╧â╧ä╬┐╧ü╬»╬▒╧é ╬╝╬▒╧é ╬┐╬╣ ╬┤╧ì╬┐ ╬║╬╡╬╜╧ä╧ü╬╣╬║╬┐╬» ╬▒╧å╬╖╬│╬╖╧ä╬¡╧é ╬║╬▒╬╣ ╬╗╬╡╬╣╧ä╬┐╧à╧ü╬│╬┐╧ì╬╜ ╧â╬▒╬╜ ╬│╬¡╧å╧à╧ü╬▒ ╬▒╬╜╬¼╬╝╬╡╧â╬▒ ╧â╧ä╬╖ ╬│╬╡╬╜╬╣╬¼ ╧ä╬┐╧à ╧ä╧î╧ä╬╡ ╬║╬▒╬╣ ╧ä╬┐╧à ╧â╬«╬╝╬╡╧ü╬▒. ╬ù ╬╝╬»╬▒ ╬│╬╡╬╜╬╣╬¼ ╬┤╬»╬╜╬╡╬╣ ╧ä╬╖╬╜ ╧â╬║╧à╧ä╬¼╬╗╬╖ ╧â╧ä╬╖╬╜ ╬╡╧Ç╧î╬╝╬╡╬╜╬╖, ╧â╬╡ ╬╝╬»╬▒ ╬╡╧Ç╬┐╧ç╬« ╧Ç╬┐╧à ╧î╬╗╬▒ ╬╝╬┐╬╣╬¼╬╢╬┐╧à╬╜ ╬▓╬╣╬▒╬»╧ë╧é ╬╜╬▒ ╬╡╧Ç╬╣╧â╧ä╧ü╬¡╧å╬┐╧à╬╜ ╧â╧ä╬┐ ╧ä╧î╧ä╬╡.
╬£╬»╬▒ ╬╡╧ü╧ë╧ä╬╣╬║╬« ╬╣╧â╧ä╬┐╧ü╬»╬▒ ╬╝╬╡ ╬╡╬╝╧Ç╧î╬┤╬╣╬▒ ╬║╬▒╬╣ ╬▒╬╜╬▒╧ä╧ü╬┐╧Ç╬¡╧é ╧Ç╬┐╧à ╧Ç╧ü╬┐╬║╬▒╬╗╬┐╧ì╬╜╧ä╬▒╬╣ ╧î╧ç╬╣ ╬▒╧Ç╧î ╧ä╧ü╬»╧ä╬┐╧à╧é ╬▒╬╗╬╗╬¼ ╬▒╧Ç╧î ╧ä╬╖╬╜ ╬»╬┤╬╣╬▒ ╧ä╬╖ ╬╢╧ë╬«.
╬ê╬╜╬▒╧é ╬┤╧à╬╜╬▒╧ä╧î╧é ╬¡╧ü╧ë╧ä╬▒╧é ╧Ç╬┐╧à ╧Ç╬▒╬╗╬╡╧ì╬┐╧à╬╜ ╬┐ ╬║╬▒╬╕╬¡╬╜╬▒╧é ╬╝╬╡ ╧ä╬┐╬╜ ╧ä╧ü╧î╧Ç╬┐ ╧ä╬┐╧à ╬╜╬▒ ╧ä╬┐╬╜ ╬║╧ü╬▒╧ä╬«╧â╬┐╧à╬╜ ╧â╬╡ ╬╝╬»╬▒ ╬╡╧Ç╬┐╧ç╬« ╧Ç╬┐╧à ╧î╬╗╬▒ ╬│╧ì╧ü╧ë ╧ä╬┐╧à╧é ╬▒╬╗╬╗╬¼╬╢╬┐╧à╬╜. ╬ÿ╬▒ ╬╡╧Ç╬╣╬▓╬╣╧Ä╧â╬╡╬╣; ╬£╬»╬▒ ╧â╬╖╬╝╬╡╧ü╬╣╬╜╬« ╬╡╧ü╧ë╧ä╬╣╬║╬« ╬╣╧â╧ä╬┐╧ü╬»╬▒, ╧â╬╡ ╬╝╬»╬▒ ╬▒╧Ç╧î ╧ä╬╣╧é ╧Ç╬╣╬┐ ╬╡╧ü╧ë╧ä╬╣╬║╬¡╧é, ╬┤╬╣╬▒╧ç╧ü╬┐╬╜╬╣╬║╬¡╧é ╬║╬▒╬╣ ╧î╬╝╬┐╧ü╧å╬╡╧é ╧Ç╬╡╧ü╬╣╬┐╧ç╬¡╧é ╧ä╬╖╧é ╬æ╬╕╬«╬╜╬▒╧é. ╬ñ╬╖╬╜ ╬á╬╗╬¼╬║╬▒.

- ╬£╬»╬▒ ╬╡╧ü╧ë╧ä╬╣╬║╬« ╬╣╧â╧ä╬┐╧ü╬»╬▒ ╧â╬╡ ╧î╬╗╬╡╧é ╧ä╬╣╧é ╬╖╬╗╬╣╬║╬»╬╡╧é ╬║╬▒╬╣ ╧â╬╡ ╧î╬╗╬╡╧é ╧ä╬╣╧é ╬╡╧Ç╬┐╧ç╬¡╧éΓÇª ╬ñ╬╣ ╧Ç╬╣╬┐ ╬▒╧Ç╬╗╧î;
- ╬ù ╬▒╬╗╬«╬╕╬╡╬╣╬▒ ╬╡╬»╬╜╬▒╬╣ ╧Ç╧ë╧é ╧ä╬┐ ╧Ç╬╣╬┐ ╬▒╧Ç╬╗╧î, ╬╡╬»╬╜╬▒╬╣ ╬║╬▒╬╣ ╧ä╬┐ ╧Ç╬╣╬┐ ╬┤╧ì╧â╬║╬┐╬╗╬┐ΓÇª

[img]http://img843.imageshack.us/img843/4011/20130228205535.png[/img]

[img]http://img221.imageshack.us/img221/5429/20130228193258.png[/img]

[img]http://img43.imageshack.us/img43/4229/20130228193319.png[/img]

[img]http://img40.imageshack.us/img40/8638/20130228193359.png[/img]

[img]http://img853.imageshack.us/img853/385/20130228193458.png[/img]

[img]http://img853.imageshack.us/img853/305/20130228205319.png[/img]

[img]http://img69.imageshack.us/img69/6500/20130228205344.png[/img]

[img]http://img844.imageshack.us/img844/2431/20130228205512.png[/img]

DVDRip ...........: ┬«egeneration[GTRD-movies]
Genres...........:   Drama | Romance                                      
Audio Codec.......:  AC-3                                  
Audio Bitrate.....: 448 Kbps
Runtime.......: 104 min
Language..........: Greek
Resolution......  720 x 304
IMDb URL..........: www.imdb.com/title/tt2400283/?ref_=fn_al_tt_2
Source........: DVD 

An.2012.DVDRip.XviD.AC3[GTRD-Movies]*OwnRip*



Format                                   : AVI
Format/Info                              : Audio Video Interleave
File size                                : 1.41 GiB
Duration                                 : 1h 47mn
Overall bit rate                         : 1 881 Kbps
Writing application                      : VirtualDubMod 1.5.10.2 (build 2542/release)
Writing library                          : VirtualDubMod build 2542/release

Video
Format                                   : MPEG-4 Visual
Format profile                           : Advanced Simple@L5
Format settings, BVOP                    : 2
Format settings, QPel                    : No
Format settings, GMC                     : No warppoints
Format settings, Matrix                  : Default (H.263)
Muxing mode                              : Packed bitstream
Codec ID                                 : XVID
Codec ID/Hint                            : XviD
Duration                                 : 1h 47mn
Bit rate                                 : 1 423 Kbps
Width                                    : 720 pixels
Height                                   : 304 pixels
Display aspect ratio                     : 2.35:1
Frame rate                               : 25.000 fps
Color space                              : YUV
Chroma subsampling                       : 4:2:0
Bit depth                                : 8 bits
Scan type                                : Progressive
Compression mode                         : Lossy
Bits/(Pixel*Frame)                       : 0.260
Stream size                              : 1.06 GiB (76%)
Writing library                          : XviD 64

Audio
Format                                   : AC-3
Format/Info                              : Audio Coding 3
Mode extension                           : CM (complete main)
Format settings, Endianness              : Big
Codec ID                                 : 2000
Duration                                 : 1h 47mn
Bit rate mode                            : Constant
Bit rate                                 : 448 Kbps
Channel(s)                               : 6 channels
Channel positions                        : Front: L C R, Side: L R, LFE
Sampling rate                            : 48.0 KHz
Bit depth                                : 16 bits
Compression mode                         : Lossy
Stream size                              : 343 MiB (24%)
Alignment                                : Split accross interleaves
Interleave, duration                     : 40 ms (1.00 video frame)
Interleave, preload duration             : 500 ms